<svg width="32" height="32" viewBox="0 0 32 32" fill="none" xmlns="http://www.w3.org/2000/svg"><style>@media (prefers-color-scheme: dark){.logo-bg{fill:#fff}.logo-accent{fill:#E63946}}@media (prefers-color-scheme: light){.logo-bg{fill:#1a1a1a}.logo-accent{fill:#E63946}}</style><rect width="32" height="32" rx="6" class="logo-bg"/><g class="logo-accent"><path d="M9 10.5C9 9.67157 9.67157 9 10.5 9H12.5C13.8807 9 15 10.1193 15 11.5C15 12.3284 14.6313 13.0784 14.0607 13.5858L10.5 17H15V19H9V17.5858L13.5 13.5C13.7761 13.2239 14 12.8284 14 12.5C14 11.6716 13.3284 11 12.5 11H11V12.5H9V10.5Z" fill="white"/><path d="M21 9V15H23V9H25V15H26V17H25V19H23V17H18V15.5L21 9ZM21 15V11.5L19.5 15H21Z" fill="white"/><rect x="8" y="22" width="16" height="2" rx="1" fill="white" opacity="0.6"/></g></svg>
